# xmcd
#
# Track frame offsets:
#	150
#	16372
#	36924
#	59319
#	74582
#	94609
#	111897
#	134952
#	150477
#	166468
#	188967
#
# Disc length: 2746 seconds
#
# Revision: 0
# Processed by: cddbd v1.5.1PL0 Copyright (c) Steve Scherf et al.
# Submitted via: dBpowerAMP V4.0
#
DISCID=9c0ab80b
DTITLE=Paul Rutter - Anything It Takes
DYEAR=1900
DGENRE=
TTITLE0=The Water Comes Rushin' In
TTITLE1=The Best Of Me
TTITLE2=Stranger Than Before
TTITLE3=Heaven Can Wait
TTITLE4=Won't Cry For Love
TTITLE5=Fools Gold
TTITLE6=Anything It Takes
TTITLE7=Tastin' The Music
TTITLE8=On The Tracks To Tennessee
TTITLE9=Hungry Eyes
TTITLE10=Lover For Life
EXTD=
EXTT0=
EXTT1=
EXTT2=
EXTT3=
EXTT4=
EXTT5=
EXTT6=
EXTT7=
EXTT8=
EXTT9=
EXTT10=
PLAYORDER=
